<svg xmlns="http://www.w3.org/2000/svg" viewBox="0 0 330.08 41.85"><defs><style>.cls-1{fill:#fff;}</style></defs><g id="Layer_2" data-name="Layer 2"><g id="Layer_1-2" data-name="Layer 1"><path class="cls-1" d="M0,1.42H21.35a18.24,18.24,0,0,1,5.64.8,12.36,12.36,0,0,1,4.1,2.16A9.42,9.42,0,0,1,33.6,7.54a9,9,0,0,1,.85,3.85,8,8,0,0,1-1,4.18,8.76,8.76,0,0,1-2.16,2.54,10.5,10.5,0,0,1-3.13,1.53v.29A12,12,0,0,1,32,21.67a10.44,10.44,0,0,1,2.65,3,9.32,9.32,0,0,1,1.19,5,11.17,11.17,0,0,1-.94,4.58,9.77,9.77,0,0,1-2.84,3.7,14.32,14.32,0,0,1-4.73,2.48,21.35,21.35,0,0,1-6.58.91H0ZM19.08,16.8a4.58,4.58,0,0,0,3.21-1,3.2,3.2,0,0,0,1.06-2.45,3.3,3.3,0,0,0-1.06-2.48,4.54,4.54,0,0,0-3.21-1H10.53V16.8Zm.56,15.94a8.09,8.09,0,0,0,2.42-.31,5.49,5.49,0,0,0,1.68-.83,3,3,0,0,0,1-1.28,4.18,4.18,0,0,0,0-3.16,3,3,0,0,0-1-1.25,5.49,5.49,0,0,0-1.68-.83,7.85,7.85,0,0,0-2.36-.31H10.53v8Z"/><path class="cls-1" d="M50.45,41.85a13.07,13.07,0,0,1-4.61-.76,9.52,9.52,0,0,1-3.51-2.22,9.84,9.84,0,0,1-2.22-3.67,15.22,15.22,0,0,1-.76-5V12.81H49V28.53a4.9,4.9,0,0,0,1.39,3.73,5.25,5.25,0,0,0,3.79,1.34,5.62,5.62,0,0,0,2.16-.43A5.44,5.44,0,0,0,59.42,30a7.37,7.37,0,0,0,.42-2.5V12.81h9.68V41.28H59.84v-4h-.57a9.89,9.89,0,0,1-2,2.42,10,10,0,0,1-2.74,1.51A11.63,11.63,0,0,1,50.45,41.85Z"/><path class="cls-1" d="M89.17,41.85A16.3,16.3,0,0,1,83,40.67a16.58,16.58,0,0,1-5.07-3.21,14.9,14.9,0,0,1-3.41-4.71,13.55,13.55,0,0,1,0-11.41,15.13,15.13,0,0,1,3.41-4.71A16.55,16.55,0,0,1,83,13.43a16.31,16.31,0,0,1,6.21-1.19,18.76,18.76,0,0,1,4.58.51,15.5,15.5,0,0,1,3.62,1.4,14.28,14.28,0,0,1,2.76,2,17.81,17.81,0,0,1,2,2.22,16.83,16.83,0,0,1,2.68,6.1h-10a6.52,6.52,0,0,0-1.25-1.94,8.14,8.14,0,0,0-1.77-1.39,5,5,0,0,0-2.67-.66,5.55,5.55,0,0,0-2.28.48A5.81,5.81,0,0,0,85,22.28a6.86,6.86,0,0,0-1.31,2.09A7.21,7.21,0,0,0,83.19,27,6.88,6.88,0,0,0,85,31.83a5.36,5.36,0,0,0,1.88,1.31,5.88,5.88,0,0,0,2.28.46A5.78,5.78,0,0,0,92,33a5.43,5.43,0,0,0,1.68-1.37,5.85,5.85,0,0,0,1.14-2h10a16.13,16.13,0,0,1-2.68,6.09,14.75,14.75,0,0,1-2,2.28,13.41,13.41,0,0,1-2.76,1.94,17.49,17.49,0,0,1-3.62,1.39A17.77,17.77,0,0,1,89.17,41.85Z"/><path class="cls-1" d="M109.1,1.42h9.68V22.21h3.13l6.55-9.4h10.25l-8.54,12.81,9.39,15.66H129l-6.55-10.82h-3.7V41.28H109.1Z"/><path class="cls-1" d="M155.56,41.85a17.1,17.1,0,0,1-6.35-1.18A16.53,16.53,0,0,1,144,37.46a14.68,14.68,0,0,1-3.44-4.71,13.55,13.55,0,0,1,0-11.41A14.9,14.9,0,0,1,144,16.63a16.59,16.59,0,0,1,5.15-3.2,17,17,0,0,1,6.38-1.19,17.31,17.31,0,0,1,6.49,1.19,16.24,16.24,0,0,1,5.13,3.19,14.91,14.91,0,0,1,3.39,4.71,13.67,13.67,0,0,1,1.22,5.7v1.61H149.3A8.56,8.56,0,0,0,150,31a5.69,5.69,0,0,0,1.31,1.73,5.54,5.54,0,0,0,1.88,1.08,7.07,7.07,0,0,0,2.33.37,9.3,9.3,0,0,0,2.82-.36,6.13,6.13,0,0,0,1.74-.85,4.1,4.1,0,0,0,1.14-1.18h10.19a13.19,13.19,0,0,1-3,5,15.2,15.2,0,0,1-2.05,1.89,14.69,14.69,0,0,1-2.76,1.64A15.78,15.78,0,0,1,160,41.45,22.86,22.86,0,0,1,155.56,41.85Zm6-18a4.78,4.78,0,0,0-.74-1.48,5.26,5.26,0,0,0-1.25-1.24,6.79,6.79,0,0,0-1.77-.87,7.17,7.17,0,0,0-2.22-.34,6.7,6.7,0,0,0-2.13.34,7.91,7.91,0,0,0-1.8.87,4.46,4.46,0,0,0-1.28,1.24,6.73,6.73,0,0,0-.77,1.48Z"/><path class="cls-1" d="M179,20.5h-3.7V12.81H179V1.42h9.62V12.81h7.69V20.5h-7.69V33.6h8.26v7.68H179Z"/><path class="cls-1" d="M204.93,1.42h10.53V31.6h19.08v9.68H204.93Z"/><path class="cls-1" d="M243.14,9.68a5.3,5.3,0,0,1-3.88-1.45,4.7,4.7,0,0,1-1.48-3.45,4.49,4.49,0,0,1,1.48-3.38A5.43,5.43,0,0,1,243.14,0,5.53,5.53,0,0,1,247,1.4a4.44,4.44,0,0,1,1.5,3.38A4.65,4.65,0,0,1,247,8.23,5.39,5.39,0,0,1,243.14,9.68Zm-4.84,3.13H248V41.28H238.3Z"/><path class="cls-1" d="M267.11,41.85a20.52,20.52,0,0,1-4.5-.45,16.47,16.47,0,0,1-3.5-1.2,11.63,11.63,0,0,1-2.62-1.71,21.31,21.31,0,0,1-2-1.93,12.94,12.94,0,0,1-2.5-5.24h9.68a3.62,3.62,0,0,0,1,1.53A5,5,0,0,0,264.35,34a6.7,6.7,0,0,0,2.76.48,7.12,7.12,0,0,0,3.1-.49c.63-.33.94-.74.94-1.23s-.45-1.09-1.34-1.38a27,27,0,0,0-3.3-.84c-1.31-.26-2.72-.58-4.24-1A18.49,18.49,0,0,1,258,27.94a10.33,10.33,0,0,1-3.27-2.72,6.9,6.9,0,0,1-1.31-4.36,6.94,6.94,0,0,1,.8-3.18,8.18,8.18,0,0,1,2.39-2.77,12.37,12.37,0,0,1,4-1.94,19.58,19.58,0,0,1,5.63-.73,18.14,18.14,0,0,1,4.33.46,17.87,17.87,0,0,1,3.36,1.14,11.55,11.55,0,0,1,2.56,1.56,12.42,12.42,0,0,1,1.82,1.8,12.76,12.76,0,0,1,2.45,5h-9.39a4,4,0,0,0-.8-1.48,5,5,0,0,0-1.37-.91,5.24,5.24,0,0,0-2.39-.46,8.91,8.91,0,0,0-1.51.11,3.81,3.81,0,0,0-1,.34,2.22,2.22,0,0,0-.66.49,1,1,0,0,0-.22.63c0,.54.43.95,1.31,1.22a27.31,27.31,0,0,0,3.27.74c1.31.22,2.72.52,4.24.89a17.5,17.5,0,0,1,4.24,1.59,10.11,10.11,0,0,1,3.28,2.72,7,7,0,0,1,1.31,4.42,7.72,7.72,0,0,1-.86,3.55,8.57,8.57,0,0,1-2.59,3,13.74,13.74,0,0,1-4.35,2.06A22.07,22.07,0,0,1,267.11,41.85Z"/><path class="cls-1" d="M287.09,20.5h-3.7V12.81h3.7V1.42h9.63V12.81h7.68V20.5h-7.68V33.6H305v7.68H287.09Z"/><path class="cls-1" d="M309.87,12.81h9.39v4.27h.57a8.48,8.48,0,0,1,1.54-2.42,5.59,5.59,0,0,1,2.25-1.36,10.39,10.39,0,0,1,3.44-.49h3v9.4h-4.84a7.07,7.07,0,0,0-2.3.36,5.29,5.29,0,0,0-1.83,1.07A4.63,4.63,0,0,0,320,25.29a5.37,5.37,0,0,0-.4,2.14V41.28h-9.68Z"/></g></g></svg>